<?xml version="1.0" encoding="utf-8"?>
<svg xmlns="http://www.w3.org/2000/svg" height="256" width="256" viewBox="0 0 256 256">
  <g>
    <ellipse cy="128" cx="128" ry="128" rx="128" fill="#1A13CD" />
    <path id="path1" transform="rotate(0,128,128) translate(40,44.7437510490417) scale(5.5,5.5)  " fill="#FFFFFF" d="M23.461975,10.194999L23.473999,10.283012C23.536987,10.775015 23.56897,11.275015 23.56897,11.784017 23.567993,17.886001 18.932007,22.902995 12.98999,23.506999L12.865967,23.517986 13.080017,23.818004C14.703979,25.988992 17.294006,27.394996 20.214966,27.400001 25.13501,27.390998 29.117004,23.410991 29.125977,18.490005 29.119019,14.72301 26.783997,11.50701 23.481018,10.202018z M11.784973,2.8740205C6.8640137,2.8830234 2.8829956,6.8640077 2.875,11.784017 2.8809814,15.551012 5.21698,18.767989 8.5189819,20.073013L8.5390015,20.080001 8.526001,19.991012C8.4639893,19.499984 8.4309692,18.999007 8.4309692,18.490005 8.4329834,12.388997 13.067993,7.3720028 19.01001,6.7679994L19.135986,6.7560059 19.127014,6.7440125C17.521973,4.41,14.833984,2.8790256,11.784973,2.8740205z M11.784973,0C16.463013,-1.8169885E-07,20.503967,2.7260107,22.406982,6.6750128L22.528015,6.934015 22.591003,6.9460084C27.960999,8.046014 31.998962,12.795002 32,18.490005 31.998962,24.999002 26.724976,30.273992 20.214966,30.274999 15.536987,30.273992 11.497009,27.548988 9.5939941,23.598979L9.4729614,23.340984 9.4099731,23.32899C4.039978,22.228986 0.0019836426,17.47899 0,11.784017 0.0019836426,5.2750198 5.276001,0.0010068975 11.784973,0z" />
  </g>
</svg>

