<?xml version="1.0" encoding="utf-8"?>
<svg xmlns="http://www.w3.org/2000/svg" height="256" width="256" viewBox="0 0 256 256">
  <g>
    <ellipse cy="128" cx="128" ry="128" rx="128" fill="#001BEF" />
    <path id="path1" transform="rotate(0,128,128) translate(65.9075946211815,65) scale(3.9375,3.9375)  " fill="#FFFFFF" d="M24.376982,26.905991C23.741972,26.905991 23.225981,27.419998 23.225981,28.054993 23.225981,28.690994 23.741972,29.205002 24.376982,29.205002 25.012998,29.205002 25.525999,28.690994 25.525999,28.054993 25.525999,27.419998 25.012998,26.905991 24.376982,26.905991z M20.570982,23.959991L20.570982,25.942001 28.181974,25.942001 28.181974,23.959991z M4.9749755,21.500992L3.593994,22.884003 5.6119994,24.901001 3.6089782,26.903 4.9549865,28.248993 6.9579772,26.246994 8.9799804,28.269989 10.362976,26.886993 8.3379821,24.863998 10.341003,22.862 8.9960021,21.516998 6.994995,23.518997z M24.376982,20.565002C23.741972,20.565002 23.225981,21.078995 23.225981,21.713989 23.225981,22.347992 23.741972,22.863998 24.376982,22.863998 25.012998,22.863998 25.525999,22.347992 25.525999,21.713989 25.525999,21.078995 25.012998,20.565002 24.376982,20.565002z M17.586975,17.414001L31.538999,17.414001 31.538999,32 17.586975,32z M0,17.414001L13.953002,17.414001 13.953002,32 0,32z M20.757994,6.548996L20.757994,8.5309906 28.366972,8.5309906 28.366972,6.548996z M6.0220031,3.7310028L6.0220031,6.5630035 3.1689757,6.5630035 3.1689757,8.5169983 6.0220031,8.5169983 6.0220031,11.347992 7.9249872,11.347992 7.9249872,8.5169983 10.78598,8.5169983 10.78598,6.5630035 7.9249872,6.5630035 7.9249872,3.7310028z M17.586975,0L31.538999,0 31.538999,14.585999 17.586975,14.585999z M0.00097656249,0L13.953002,0 13.953002,14.585999 0.00097656249,14.585999z" />
  </g>
</svg>

